<mxfile host="app.diagrams.net" modified="2022-03-17T13:52:56.309Z" agent="5.0 (Windows NT 10.0; Win64; x64) AppleWebKit/537.36 (KHTML, like Gecko) Chrome/99.0.4844.51 Safari/537.36" etag="GygAlxvWcqoAhzVebV1d" version="17.1.3" type="github">
  <diagram id="C5RBs43oDa-KdzZeNtuy" name="Page-1">
    <mxGraphModel dx="1583" dy="689" grid="1" gridSize="10" guides="1" tooltips="1" connect="1" arrows="1" fold="1" page="1" pageScale="1" pageWidth="827" pageHeight="1169" math="0" shadow="0">
      <root>
        <mxCell id="WIyWlLk6GJQsqaUBKTNV-0" />
        <mxCell id="WIyWlLk6GJQsqaUBKTNV-1" parent="WIyWlLk6GJQsqaUBKTNV-0" />
        <mxCell id="EbE3_PwlNy2G-HYdQJxf-0" value="FIM" style="rounded=1;whiteSpace=wrap;html=1;" vertex="1" parent="WIyWlLk6GJQsqaUBKTNV-1">
          <mxGeometry y="60" width="120" height="60" as="geometry" />
        </mxCell>
        <mxCell id="EbE3_PwlNy2G-HYdQJxf-1" value="INICIO" style="rounded=1;whiteSpace=wrap;html=1;" vertex="1" parent="WIyWlLk6GJQsqaUBKTNV-1">
          <mxGeometry width="120" height="60" as="geometry" />
        </mxCell>
        <mxCell id="EbE3_PwlNy2G-HYdQJxf-2" value="ENTRADA" style="shape=parallelogram;perimeter=parallelogramPerimeter;whiteSpace=wrap;html=1;fixedSize=1;" vertex="1" parent="WIyWlLk6GJQsqaUBKTNV-1">
          <mxGeometry y="260" width="120" height="60" as="geometry" />
        </mxCell>
        <mxCell id="EbE3_PwlNy2G-HYdQJxf-34" value="FALSO" style="edgeStyle=orthogonalEdgeStyle;rounded=0;orthogonalLoop=1;jettySize=auto;html=1;exitX=1;exitY=0.5;exitDx=0;exitDy=0;entryX=0;entryY=0.5;entryDx=0;entryDy=0;" edge="1" parent="WIyWlLk6GJQsqaUBKTNV-1" source="EbE3_PwlNy2G-HYdQJxf-3" target="EbE3_PwlNy2G-HYdQJxf-33">
          <mxGeometry relative="1" as="geometry" />
        </mxCell>
        <mxCell id="EbE3_PwlNy2G-HYdQJxf-35" value="VERDADEIRO" style="edgeStyle=orthogonalEdgeStyle;rounded=0;orthogonalLoop=1;jettySize=auto;html=1;exitX=0;exitY=0.5;exitDx=0;exitDy=0;entryX=1;entryY=0.5;entryDx=0;entryDy=0;" edge="1" parent="WIyWlLk6GJQsqaUBKTNV-1" source="EbE3_PwlNy2G-HYdQJxf-3" target="EbE3_PwlNy2G-HYdQJxf-5">
          <mxGeometry relative="1" as="geometry" />
        </mxCell>
        <mxCell id="EbE3_PwlNy2G-HYdQJxf-3" value="A&amp;gt;B" style="rhombus;whiteSpace=wrap;html=1;" vertex="1" parent="WIyWlLk6GJQsqaUBKTNV-1">
          <mxGeometry x="460" y="240" width="80" height="80" as="geometry" />
        </mxCell>
        <mxCell id="EbE3_PwlNy2G-HYdQJxf-40" style="edgeStyle=orthogonalEdgeStyle;rounded=0;orthogonalLoop=1;jettySize=auto;html=1;exitX=0.5;exitY=1;exitDx=0;exitDy=0;entryX=0.5;entryY=0;entryDx=0;entryDy=0;" edge="1" parent="WIyWlLk6GJQsqaUBKTNV-1" source="EbE3_PwlNy2G-HYdQJxf-5" target="EbE3_PwlNy2G-HYdQJxf-39">
          <mxGeometry relative="1" as="geometry" />
        </mxCell>
        <mxCell id="EbE3_PwlNy2G-HYdQJxf-5" value="A&amp;gt;B" style="rounded=0;whiteSpace=wrap;html=1;" vertex="1" parent="WIyWlLk6GJQsqaUBKTNV-1">
          <mxGeometry x="220" y="250" width="120" height="60" as="geometry" />
        </mxCell>
        <mxCell id="EbE3_PwlNy2G-HYdQJxf-21" style="edgeStyle=orthogonalEdgeStyle;rounded=0;orthogonalLoop=1;jettySize=auto;html=1;exitX=0.5;exitY=1;exitDx=0;exitDy=0;entryX=0.5;entryY=0;entryDx=0;entryDy=0;" edge="1" parent="WIyWlLk6GJQsqaUBKTNV-1" source="EbE3_PwlNy2G-HYdQJxf-6" target="EbE3_PwlNy2G-HYdQJxf-3">
          <mxGeometry relative="1" as="geometry" />
        </mxCell>
        <mxCell id="EbE3_PwlNy2G-HYdQJxf-6" value="A,B" style="shape=parallelogram;perimeter=parallelogramPerimeter;whiteSpace=wrap;html=1;fixedSize=1;" vertex="1" parent="WIyWlLk6GJQsqaUBKTNV-1">
          <mxGeometry x="440" y="130" width="120" height="60" as="geometry" />
        </mxCell>
        <mxCell id="EbE3_PwlNy2G-HYdQJxf-12" style="edgeStyle=orthogonalEdgeStyle;rounded=0;orthogonalLoop=1;jettySize=auto;html=1;exitX=0.5;exitY=1;exitDx=0;exitDy=0;entryX=0.5;entryY=0;entryDx=0;entryDy=0;" edge="1" parent="WIyWlLk6GJQsqaUBKTNV-1" source="EbE3_PwlNy2G-HYdQJxf-7" target="EbE3_PwlNy2G-HYdQJxf-6">
          <mxGeometry relative="1" as="geometry" />
        </mxCell>
        <mxCell id="EbE3_PwlNy2G-HYdQJxf-7" value="INICIO" style="rounded=1;whiteSpace=wrap;html=1;" vertex="1" parent="WIyWlLk6GJQsqaUBKTNV-1">
          <mxGeometry x="440" y="20" width="120" height="60" as="geometry" />
        </mxCell>
        <mxCell id="EbE3_PwlNy2G-HYdQJxf-41" style="edgeStyle=orthogonalEdgeStyle;rounded=0;orthogonalLoop=1;jettySize=auto;html=1;exitX=0.5;exitY=1;exitDx=0;exitDy=0;entryX=0.5;entryY=0;entryDx=0;entryDy=0;" edge="1" parent="WIyWlLk6GJQsqaUBKTNV-1" source="EbE3_PwlNy2G-HYdQJxf-33" target="EbE3_PwlNy2G-HYdQJxf-38">
          <mxGeometry relative="1" as="geometry" />
        </mxCell>
        <mxCell id="EbE3_PwlNy2G-HYdQJxf-33" value="A&amp;lt;B" style="rounded=0;whiteSpace=wrap;html=1;" vertex="1" parent="WIyWlLk6GJQsqaUBKTNV-1">
          <mxGeometry x="660" y="250" width="120" height="60" as="geometry" />
        </mxCell>
        <mxCell id="EbE3_PwlNy2G-HYdQJxf-44" style="edgeStyle=orthogonalEdgeStyle;rounded=0;orthogonalLoop=1;jettySize=auto;html=1;exitX=0;exitY=0.5;exitDx=0;exitDy=0;entryX=1;entryY=0.5;entryDx=0;entryDy=0;" edge="1" parent="WIyWlLk6GJQsqaUBKTNV-1" source="EbE3_PwlNy2G-HYdQJxf-38" target="EbE3_PwlNy2G-HYdQJxf-42">
          <mxGeometry relative="1" as="geometry" />
        </mxCell>
        <mxCell id="EbE3_PwlNy2G-HYdQJxf-38" value="B" style="shape=document;whiteSpace=wrap;html=1;boundedLbl=1;" vertex="1" parent="WIyWlLk6GJQsqaUBKTNV-1">
          <mxGeometry x="660" y="400" width="120" height="80" as="geometry" />
        </mxCell>
        <mxCell id="EbE3_PwlNy2G-HYdQJxf-43" style="edgeStyle=orthogonalEdgeStyle;rounded=0;orthogonalLoop=1;jettySize=auto;html=1;exitX=1;exitY=0.5;exitDx=0;exitDy=0;entryX=0;entryY=0.5;entryDx=0;entryDy=0;" edge="1" parent="WIyWlLk6GJQsqaUBKTNV-1" source="EbE3_PwlNy2G-HYdQJxf-39" target="EbE3_PwlNy2G-HYdQJxf-42">
          <mxGeometry relative="1" as="geometry" />
        </mxCell>
        <mxCell id="EbE3_PwlNy2G-HYdQJxf-39" value="A" style="shape=document;whiteSpace=wrap;html=1;boundedLbl=1;" vertex="1" parent="WIyWlLk6GJQsqaUBKTNV-1">
          <mxGeometry x="220" y="400" width="120" height="80" as="geometry" />
        </mxCell>
        <mxCell id="EbE3_PwlNy2G-HYdQJxf-42" value="FIM" style="rounded=1;whiteSpace=wrap;html=1;" vertex="1" parent="WIyWlLk6GJQsqaUBKTNV-1">
          <mxGeometry x="440" y="480" width="120" height="60" as="geometry" />
        </mxCell>
      </root>
    </mxGraphModel>
  </diagram>
</mxfile>
